<?xml version="1.0" encoding="utf-8"?>
<!-- Generator: Adobe Illustrator 16.0.0, SVG Export Plug-In . SVG Version: 6.00 Build 0)  -->
<!DOCTYPE svg PUBLIC "-//W3C//DTD SVG 1.1//EN" "http://www.w3.org/Graphics/SVG/1.1/DTD/svg11.dtd">
<svg version="1.1" id="Layer_1" xmlns="http://www.w3.org/2000/svg" xmlns:xlink="http://www.w3.org/1999/xlink" x="0px" y="0px"
	 width="60px" height="60px" viewBox="0 0 60 60" enable-background="new 0 0 60 60" xml:space="preserve">
<g>
	<path fill="#FFFFFF" d="M30.195,4.166c6.07,4.396,13.354,5.32,18.405,5.32C52.262,9.486,54.75,9,54.75,9S58.25,48.438,30,56.417
		C2.083,48.417,5.667,9,5.667,9s2.589,0.473,6.312,0.473C17.163,9.473,24.547,8.555,30.195,4.166 M30.164,2.291l-0.889,0.69
		c-5.309,4.125-12.336,4.992-17.296,4.992c-3.525,0-6.019-0.444-6.043-0.449L4.322,7.232L4.173,8.864
		C4.135,9.276,3.285,19.09,5.905,30.057C9.432,44.816,17.621,54.43,29.587,57.859l0.41,0.117l0.411-0.116
		c12.101-3.418,20.407-13.027,24.018-27.788C57.11,19.101,56.28,9.28,56.244,8.867l-0.147-1.658l-1.634,0.319
		c-0.022,0.004-2.41,0.458-5.862,0.458c-4.823,0-11.779-0.874-17.525-5.035L30.164,2.291L30.164,2.291z"/>
</g>
</svg>
